<?xml version="1.0" encoding="UTF-8"?>
<!DOCTYPE svg PUBLIC "-//W3C//DTD SVG 1.1//EN" "http://www.w3.org/Graphics/SVG/1.1/DTD/svg11.dtd">
<!-- Creator: CorelDRAW X7 -->
<svg xmlns="http://www.w3.org/2000/svg" xml:space="preserve" width="8.5in" height="8.5in" version="1.1" style="shape-rendering:geometricPrecision; text-rendering:geometricPrecision; image-rendering:optimizeQuality; fill-rule:evenodd; clip-rule:evenodd"
viewBox="0 0 6347 6347"
 xmlns:xlink="http://www.w3.org/1999/xlink">
 <defs>
  <style type="text/css">
   <![CDATA[
    .fil0 {fill:white}
   ]]>
  </style>
 </defs>
 <g id="Layer_x0020_1">
  <metadata id="CorelCorpID_0Corel-Layer"/>
  <path class="fil0" d="M3174 0c-1753,0 -3174,1421 -3174,3174 0,1752 1421,3173 3174,3173 1752,0 3173,-1421 3173,-3173 0,-1753 -1421,-3174 -3173,-3174zm1569 3156c-155,155 -406,155 -561,0l-612 -611 0 2215c0,220 -177,397 -396,397 -219,0 -397,-177 -397,-397l0 -2215 -613 611c-154,155 -406,155 -560,0 -155,-155 -155,-406 0,-561l1278 -1278c109,-110 231,-127 292,-127 60,0 181,17 280,117l1278 1278c166,166 166,416 11,571z"/>
 </g>
</svg>
