<?xml version="1.0" encoding="UTF-8"?>
<!DOCTYPE svg PUBLIC "-//W3C//DTD SVG 1.1//EN" "http://www.w3.org/Graphics/SVG/1.1/DTD/svg11.dtd">
<!-- Creator: CorelDRAW X7 -->
<svg xmlns="http://www.w3.org/2000/svg" xml:space="preserve" width="8.49999in" height="8.5in" version="1.1" style="shape-rendering:geometricPrecision; text-rendering:geometricPrecision; image-rendering:optimizeQuality; fill-rule:evenodd; clip-rule:evenodd"
viewBox="0 0 11333 11333"
 xmlns:xlink="http://www.w3.org/1999/xlink">
 <defs>
  <style type="text/css">
   <![CDATA[
    .fil0 {fill:white}
   ]]>
  </style>
 </defs>
 <g id="Layer_x0020_1">
  <metadata id="CorelCorpID_0Corel-Layer"/>
  <path class="fil0" d="M10119 0l-8905 0c-670,0 -1214,544 -1214,1214l0 8905c0,671 544,1214 1214,1214l3472 0 0 -3853 -1593 0 0 -1813 1593 0 0 -1383c0,-1572 936,-2440 2370,-2440 687,0 1405,122 1405,122l0 1543 -792 0c-779,0 -1022,484 -1022,980l0 1178 1740 0 -278 1813 -1462 0 0 3853 3472 0c671,0 1214,-543 1214,-1214l0 -8905c0,-670 -543,-1214 -1214,-1214z"/>
 </g>
</svg>
