<?xml version="1.0" encoding="UTF-8"?>
<!DOCTYPE svg PUBLIC "-//W3C//DTD SVG 1.1//EN" "http://www.w3.org/Graphics/SVG/1.1/DTD/svg11.dtd">
<!-- Creator: CorelDRAW X7 -->
<svg xmlns="http://www.w3.org/2000/svg" xml:space="preserve" width="8.50474in" height="8.50284in" version="1.1" style="shape-rendering:geometricPrecision; text-rendering:geometricPrecision; image-rendering:optimizeQuality; fill-rule:evenodd; clip-rule:evenodd"
viewBox="0 0 10344 10342"
 xmlns:xlink="http://www.w3.org/1999/xlink">
 <defs>
  <style type="text/css">
   <![CDATA[
    .fil0 {fill:white}
   ]]>
  </style>
 </defs>
 <g id="Layer_x0020_1">
  <metadata id="CorelCorpID_0Corel-Layer"/>
  <path class="fil0" d="M5173 2519c-1468,0 -2651,1184 -2651,2652 0,1467 1183,2651 2651,2651 1468,0 2652,-1184 2652,-2651 0,-1468 -1184,-2652 -2652,-2652zm0 4376c-948,0 -1724,-774 -1724,-1724 0,-951 773,-1724 1724,-1724 951,0 1724,773 1724,1724 0,950 -776,1724 -1724,1724zm3378 -4484c0,344 -277,618 -618,618 -344,0 -618,-277 -618,-618 0,-342 276,-619 618,-619 341,0 618,277 618,619zm1756 628c-39,-829 -228,-1563 -835,-2167 -604,-605 -1338,-794 -2167,-836 -854,-48 -3413,-48 -4266,0 -827,40 -1560,229 -2167,833 -607,605 -794,1339 -836,2167 -48,854 -48,3413 0,4267 40,828 229,1562 836,2167 607,604 1338,794 2167,835 853,49 3412,49 4266,0 829,-39 1563,-228 2167,-835 605,-605 794,-1339 835,-2167 49,-854 49,-3411 0,-4264zm-1103 5180c-180,452 -528,801 -983,983 -680,270 -2296,208 -3048,208 -752,0 -2370,60 -3048,-208 -453,-180 -801,-528 -983,-983 -270,-681 -208,-2296 -208,-3048 0,-753 -60,-2370 208,-3049 180,-452 528,-800 983,-983 680,-270 2296,-207 3048,-207 752,0 2370,-60 3048,207 453,180 801,529 983,983 270,681 208,2296 208,3049 0,752 62,2370 -208,3048z"/>
 </g>
</svg>
