<?xml version="1.0" encoding="UTF-8"?>
<!DOCTYPE svg PUBLIC "-//W3C//DTD SVG 1.1//EN" "http://www.w3.org/Graphics/SVG/1.1/DTD/svg11.dtd">
<!-- Creator: CorelDRAW X7 -->
<svg xmlns="http://www.w3.org/2000/svg" xml:space="preserve" width="8.5in" height="8.5in" version="1.1" style="shape-rendering:geometricPrecision; text-rendering:geometricPrecision; image-rendering:optimizeQuality; fill-rule:evenodd; clip-rule:evenodd"
viewBox="0 0 3411 3411"
 xmlns:xlink="http://www.w3.org/1999/xlink">
 <defs>
  <style type="text/css">
   <![CDATA[
    .fil0 {fill:white}
   ]]>
  </style>
 </defs>
 <g id="Layer_x0020_1">
  <metadata id="CorelCorpID_0Corel-Layer"/>
  <path class="fil0" d="M3167 0l-2924 0c-134,0 -243,110 -243,246l0 2919c0,136 109,246 243,246l2924 0c134,0 244,-110 244,-246l0 -2919c0,-136 -110,-246 -244,-246zm-2136 2924l-506 0 0 -1628 507 0 0 1628 -1 0zm-253 -1850c-162,0 -293,-132 -293,-294 0,-161 131,-293 293,-293 162,0 293,132 293,293 0,163 -131,294 -293,294zm2148 1850l-506 0 0 -792c0,-189 -3,-432 -262,-432 -264,0 -304,206 -304,418l0 806 -506 0 0 -1628 485 0 0 222 7 0c68,-128 233,-262 479,-262 512,0 607,337 607,775l0 893z"/>
 </g>
</svg>
