<?xml version="1.0" encoding="UTF-8"?>
<!DOCTYPE svg PUBLIC "-//W3C//DTD SVG 1.1//EN" "http://www.w3.org/Graphics/SVG/1.1/DTD/svg11.dtd">
<!-- Creator: CorelDRAW X7 -->
<svg xmlns="http://www.w3.org/2000/svg" xml:space="preserve" width="8.5in" height="6.61111in" version="1.1" style="shape-rendering:geometricPrecision; text-rendering:geometricPrecision; image-rendering:optimizeQuality; fill-rule:evenodd; clip-rule:evenodd"
viewBox="0 0 7780 6051"
 xmlns:xlink="http://www.w3.org/1999/xlink">
 <defs>
  <style type="text/css">
   <![CDATA[
    .fil0 {fill:white}
   ]]>
  </style>
 </defs>
 <g id="Layer_x0020_1">
  <metadata id="CorelCorpID_0Corel-Layer"/>
  <path class="fil0" d="M6916 0l-6052 0c-477,0 -864,387 -864,864l0 4323c0,477 387,864 864,864l6052 0c477,0 864,-387 864,-864l0 -4323c0,-477 -387,-864 -864,-864zm-4539 1297c478,0 865,387 865,864 0,478 -387,865 -865,865 -477,0 -864,-387 -864,-865 0,-477 387,-864 864,-864zm1297 3458l-2593 0c-120,0 -217,-98 -217,-216 0,-598 484,-1081 1081,-1081l865 0c596,0 1080,484 1080,1080 0,119 -97,217 -216,217zm3026 -865l-1729 0c-119,0 -216,-97 -216,-216 0,-119 97,-216 216,-216l1729 0c119,0 216,97 216,216 0,119 -97,216 -216,216zm0 -864l-1729 0c-119,0 -216,-98 -216,-216 0,-119 97,-217 216,-217l1729 0c119,0 216,98 216,217 0,118 -97,216 -216,216zm0 -865l-1729 0c-119,0 -216,-97 -216,-216 0,-119 97,-216 216,-216l1729 0c119,0 216,97 216,216 0,119 -97,216 -216,216z"/>
 </g>
</svg>
