<?xml version="1.0" encoding="UTF-8"?>
<!DOCTYPE svg PUBLIC "-//W3C//DTD SVG 1.1//EN" "http://www.w3.org/Graphics/SVG/1.1/DTD/svg11.dtd">
<!-- Creator: CorelDRAW X7 -->
<svg xmlns="http://www.w3.org/2000/svg" xml:space="preserve" width="8.5in" height="5.95in" version="1.1" style="shape-rendering:geometricPrecision; text-rendering:geometricPrecision; image-rendering:optimizeQuality; fill-rule:evenodd; clip-rule:evenodd"
viewBox="0 0 9366 6557"
 xmlns:xlink="http://www.w3.org/1999/xlink">
 <defs>
  <style type="text/css">
   <![CDATA[
    .fil0 {fill:white}
   ]]>
  </style>
 </defs>
 <g id="Layer_x0020_1">
  <metadata id="CorelCorpID_0Corel-Layer"/>
  <path class="fil0" d="M1873 937l5620 0 0 3746 937 0 0 -3981c0,-385 -316,-702 -703,-702l-6088 0c-386,0 -702,317 -702,702l0 3981 936 0 0 -3746zm7259 4215l-8898 0c-128,0 -234,106 -234,234l0 234c0,516 421,937 937,937l7493 0c516,0 936,-421 936,-937l0 -234c0,-128 -105,-234 -234,-234zm-3777 -1432c57,57 132,85 206,85 75,0 150,-28 207,-85l703 -703c114,-114 114,-300 0,-414l-703 -703c-114,-114 -299,-114 -414,0 -114,115 -114,300 0,415l496 495 -496 495c-115,115 -115,301 1,415zm-1344 -1819c-114,-114 -299,-114 -413,0l-703 703c-114,114 -114,300 0,414l703 702c58,57 132,85 207,85 75,0 150,-28 207,-85 114,-115 114,-300 0,-415l-495 -495 495 -495c102,-114 102,-300 -1,-414z"/>
 </g>
</svg>
