<?xml version="1.0" encoding="UTF-8"?>
<!DOCTYPE svg PUBLIC "-//W3C//DTD SVG 1.1//EN" "http://www.w3.org/Graphics/SVG/1.1/DTD/svg11.dtd">
<!-- Creator: CorelDRAW X7 -->
<svg xmlns="http://www.w3.org/2000/svg" xml:space="preserve" width="8.5in" height="5.95in" version="1.1" style="shape-rendering:geometricPrecision; text-rendering:geometricPrecision; image-rendering:optimizeQuality; fill-rule:evenodd; clip-rule:evenodd"
viewBox="0 0 6047 4233"
 xmlns:xlink="http://www.w3.org/1999/xlink">
 <defs>
  <style type="text/css">
   <![CDATA[
    .fil0 {fill:white}
   ]]>
  </style>
 </defs>
 <g id="Layer_x0020_1">
  <metadata id="CorelCorpID_0Corel-Layer"/>
  <path class="fil0" d="M1739 529c0,292 -238,529 -530,529 -292,0 -529,-237 -529,-529 0,-292 237,-529 529,-529 292,0 530,237 530,529zm230 1023c-280,250 -457,614 -457,1018 0,324 105,622 302,855l0 203c0,168 -135,303 -302,303l-605 0c-167,0 -302,-135 -302,-303l0 -253c-358,-170 -605,-534 -605,-956 0,-585 474,-1058 1058,-1058l303 0c218,0 436,70 608,191l0 0zm-1364 467c-94,106 -151,247 -151,400 0,153 57,294 151,400l0 -800zm3628 1609l0 -203c189,-233 302,-531 302,-855 0,-404 -176,-768 -457,-1018 172,-121 382,-191 609,-191l302 0c585,0 1058,473 1058,1058 0,422 -247,786 -604,956l0 253c0,168 -136,303 -303,303l-605 0c-167,0 -302,-135 -302,-303zm1210 -809c86,-106 151,-247 151,-400 0,-153 -65,-294 -151,-400l0 800zm-76 -2290c0,292 -237,529 -529,529 -292,0 -529,-237 -529,-529 0,-292 237,-529 529,-529 292,0 529,237 529,529zm-2948 76c0,-334 271,-605 605,-605 333,0 604,271 604,605 0,333 -271,604 -604,604 -334,0 -605,-271 -605,-604zm1814 1965c0,422 -247,786 -605,956l0 405c0,167 -135,302 -302,302l-605 0c-167,0 -302,-135 -302,-302l0 -405c-357,-170 -605,-534 -605,-956 0,-585 474,-1058 1058,-1058l303 0c585,0 1058,473 1058,1058zm-1814 400l0 -800c-95,106 -151,247 -151,400 0,153 56,294 151,400zm1209 -800l0 800c86,-107 152,-247 152,-400 0,-153 -66,-294 -152,-400z"/>
 </g>
</svg>
