<?xml version="1.0" encoding="UTF-8"?>
<!DOCTYPE svg PUBLIC "-//W3C//DTD SVG 1.1//EN" "http://www.w3.org/Graphics/SVG/1.1/DTD/svg11.dtd">
<!-- Creator: CorelDRAW X7 -->
<svg xmlns="http://www.w3.org/2000/svg" xml:space="preserve" width="8.5in" height="8.5in" version="1.1" style="shape-rendering:geometricPrecision; text-rendering:geometricPrecision; image-rendering:optimizeQuality; fill-rule:evenodd; clip-rule:evenodd"
viewBox="0 0 4060 4060"
 xmlns:xlink="http://www.w3.org/1999/xlink">
 <defs>
  <style type="text/css">
   <![CDATA[
    .fil0 {fill:white}
   ]]>
  </style>
 </defs>
 <g id="Layer_x0020_1">
  <metadata id="CorelCorpID_0Corel-Layer"/>
  <path class="fil0" d="M3625 0l-3190 0c-240,0 -435,195 -435,435l0 3190c0,240 195,435 435,435l3190 0c240,0 435,-195 435,-435l0 -3190c0,-240 -195,-435 -435,-435zm-443 1439c2,26 2,52 2,77 0,786 -598,1691 -1691,1691 -337,0 -650,-97 -913,-266 48,5 94,7 143,7 278,0 534,-94 738,-254 -261,-5 -480,-176 -556,-412 92,14 174,14 269,-11 -272,-55 -476,-294 -476,-583l0 -8c79,45 171,72 268,76 -165,-110 -265,-296 -265,-494 0,-1 0,-1 0,-1 0,-111 29,-212 81,-300 293,360 732,596 1225,621 -84,-403 218,-730 581,-730 171,0 325,72 434,188 134,-26 262,-76 377,-144 -45,138 -138,254 -261,328 119,-13 235,-47 342,-93 -80,119 -182,224 -298,308l0 0z"/>
 </g>
</svg>
